<svg version="1" xmlns="http://www.w3.org/2000/svg" viewBox="0 0 50 50"><path fill="#A6C1C2" d="M48.794 27.03c.056-.67.092-1.346.092-2.03C48.886 11.81 38.192 1.115 25 1.115S1.115 11.81 1.115 25a23.81 23.81 0 0 0 6.96 16.85l40.72-14.82z"/><path fill="#B9D7D9" d="M39.71 6.133a23.77 23.77 0 0 0-14.637-5.018c-11.46 0-21.033 8.074-23.348 18.844L39.71 6.132z"/><path fill="#444" d="M49.953 23.44c-.27-4.46-1.753-8.622-4.11-12.164a1.086 1.086 0 0 0-.264-.386C41.185 4.543 33.945.276 25.826.013c-7.01-.22-13.574 2.374-18.514 7.32-4.94 4.944-7.532 11.522-7.3 18.522.156 4.65 1.644 9.023 4.087 12.74.06.23.204.43.4.586 4.198 6.015 10.946 10.18 18.586 10.748a25.638 25.638 0 0 0 3.437.026c.425-.024.8-.263 1-.638.202-.375.195-.82-.018-1.184l-6.644-11.51h10.16c.013 0 .026.004.04.004.013 0 .026-.005.04-.005h8.608a1.113 1.113 0 1 0 0-2.227h-6.715l11.84-20.508a22.338 22.338 0 0 1 2.892 9.692c.068 1.12.056 2.25-.037 3.357a1.116 1.116 0 0 0 1.017 1.204 1.12 1.12 0 0 0 1.204-1.018c.104-1.215.117-2.453.043-3.68zM8.89 8.908c3.787-3.79 8.632-6.067 13.872-6.567l6.37 11.035H5.41a22.997 22.997 0 0 1 3.48-4.468zm-4.65 6.697h12.767l-11.83 20.49c-1.754-3.09-2.81-6.605-2.935-10.313-.12-3.578.573-7.035 1.997-10.176zm19.013 32.102c-6.835-.51-12.887-4.178-16.722-9.5l6.34-10.977 11.854 20.54c-.49-.007-.98-.028-1.47-.064zm-3.676-13.314L14.157 25l5.424-9.396h10.84L35.846 25l-5.423 9.392H19.577zm17.555-11.62l-5.028-8.71-.018-.03-6.81-11.794c.16.002.32 0 .48.004 7.233.233 13.704 3.956 17.728 9.53l-6.352 11z"/></svg>